<svg width="84" height="18" viewBox="0 0 84 18" fill="none" xmlns="http://www.w3.org/2000/svg">
<path d="M9.68292 1.45553H0.575531V0H13.2787C12.965 0.322873 12.7122 0.59237 12.4478 0.852751C9.1709 4.0932 5.90049 7.34145 2.59637 10.5546C2.3112 10.8332 1.81863 10.9451 1.40383 11.0259C1.01496 11.104 0.597567 11.0428 0 11.0428L9.68292 1.45553Z" fill="white"/>
<path d="M12.6993 4.43888L3.43699 13.3582L2.99037 13.7882H3.6104H12.5172V14.75H0.60849C0.738021 14.6217 0.865254 14.4956 0.990694 14.3712C1.53275 13.8338 2.04131 13.3296 2.55712 12.8305C3.34423 12.0698 4.13715 11.3123 4.93078 10.5542C6.78611 8.78194 8.64532 7.00594 10.4431 5.17568L10.4431 5.17567C10.8491 4.76238 11.2558 4.56893 11.6989 4.4854C12.0057 4.42754 12.3332 4.4215 12.6993 4.43888Z" stroke="#FBD802" stroke-width="0.5"/>
<path d="M24.672 8.688L22.668 14.052L20.652 8.688H19.92L17.892 14.052L15.912 8.688H15.096L17.472 15H18.276L20.268 9.828L22.26 15H23.064L25.452 8.688H24.672ZM32.0671 11.844C32.0671 9.948 30.7831 8.64 29.0071 8.64C27.2311 8.64 25.9231 9.972 25.9231 11.844C25.9231 13.716 27.2671 15.06 29.2351 15.06C30.2311 15.06 31.1071 14.7 31.6711 14.028L31.1911 13.476C30.7111 14.028 30.0271 14.304 29.2591 14.304C27.8791 14.304 26.8711 13.428 26.7751 12.108H32.0551C32.0551 12.012 32.0671 11.916 32.0671 11.844ZM29.0071 9.372C30.2431 9.372 31.1431 10.236 31.2511 11.472H26.7751C26.8831 10.236 27.7831 9.372 29.0071 9.372ZM45.1139 6.6L41.5019 12.828L37.8539 6.6H37.1219V15H37.9739V8.316L41.2739 13.932H41.6939L44.9939 8.28V15H45.8459V6.6H45.1139ZM48.8348 7.308C49.1948 7.308 49.4588 7.032 49.4588 6.684C49.4588 6.36 49.1828 6.096 48.8348 6.096C48.4868 6.096 48.2108 6.372 48.2108 6.696C48.2108 7.032 48.4868 7.308 48.8348 7.308ZM48.4028 15H49.2548V8.688H48.4028V15ZM54.8415 8.64C53.7495 8.64 52.8975 9.084 52.4415 9.852V8.688H51.6255V15H52.4775V11.688C52.4775 10.248 53.3295 9.408 54.6855 9.408C55.8855 9.408 56.5815 10.092 56.5815 11.424V15H57.4335V11.34C57.4335 9.528 56.3775 8.64 54.8415 8.64ZM65.3832 15.072C67.5312 15.072 68.5152 14.016 68.5152 12.78C68.5152 9.72 63.3432 11.112 63.3432 8.808C63.3432 7.968 64.0272 7.284 65.5632 7.284C66.3072 7.284 67.1472 7.512 67.8672 7.98L68.1672 7.272C67.4952 6.804 66.5112 6.528 65.5632 6.528C63.4272 6.528 62.4672 7.596 62.4672 8.832C62.4672 11.94 67.6392 10.524 67.6392 12.828C67.6392 13.656 66.9552 14.316 65.3832 14.316C64.2792 14.316 63.2112 13.884 62.6112 13.296L62.2632 13.98C62.8872 14.628 64.1232 15.072 65.3832 15.072ZM72.85 15.06C74.698 15.06 76.054 13.716 76.054 11.844C76.054 9.972 74.698 8.64 72.85 8.64C71.002 8.64 69.634 9.972 69.634 11.844C69.634 13.716 71.002 15.06 72.85 15.06ZM72.85 14.304C71.506 14.304 70.498 13.32 70.498 11.844C70.498 10.368 71.506 9.384 72.85 9.384C74.194 9.384 75.19 10.368 75.19 11.844C75.19 13.32 74.194 14.304 72.85 14.304ZM83.3015 11.844C83.3015 9.948 82.0175 8.64 80.2415 8.64C78.4655 8.64 77.1575 9.972 77.1575 11.844C77.1575 13.716 78.5015 15.06 80.4695 15.06C81.4655 15.06 82.3415 14.7 82.9055 14.028L82.4255 13.476C81.9455 14.028 81.2615 14.304 80.4935 14.304C79.1135 14.304 78.1055 13.428 78.0095 12.108H83.2895C83.2895 12.012 83.3015 11.916 83.3015 11.844ZM80.2415 9.372C81.4775 9.372 82.3775 10.236 82.4855 11.472H78.0095C78.1175 10.236 79.0175 9.372 80.2415 9.372Z" fill="white"/>
</svg>
