<?xml version="1.0" standalone="no"?>
<!DOCTYPE svg PUBLIC "-//W3C//DTD SVG 20010904//EN"
 "http://www.w3.org/TR/2001/REC-SVG-20010904/DTD/svg10.dtd">
<svg version="1.0" xmlns="http://www.w3.org/2000/svg"
 width="280.000000pt" height="280.000000pt" viewBox="0 0 280.000000 280.000000"
 preserveAspectRatio="xMidYMid meet">
<metadata>
Created by potrace 1.14, written by Peter Selinger 2001-2017
</metadata>
<g transform="translate(0.000000,280.000000) scale(0.100000,-0.100000)"
fill="#000000" stroke="none">
<path d="M120 2665 l0 -135 959 -2 959 -3 -56 -49 c-32 -27 -88 -77 -127 -111
-38 -34 -131 -115 -205 -180 -194 -169 -262 -229 -274 -240 -14 -12 -159 -140
-201 -176 -109 -95 -292 -255 -301 -264 -6 -5 -37 -32 -69 -60 -75 -65 -80
-70 -156 -137 -72 -64 -82 -72 -170 -148 -58 -50 -157 -138 -169 -150 -3 -3
-39 -34 -80 -70 -116 -100 -140 -122 -184 -162 -47 -43 -60 -39 110 -42 155
-3 338 41 394 95 8 8 80 70 160 139 80 68 150 129 156 135 6 5 37 33 69 60 32
28 63 55 69 60 6 6 43 37 81 70 39 33 75 64 81 70 6 5 39 35 74 65 190 164
306 265 310 270 3 3 57 50 120 105 63 54 117 102 120 105 3 3 39 34 80 70 41
36 77 67 80 70 3 3 39 34 80 70 41 36 80 69 86 75 9 9 100 88 158 138 12 10
35 31 51 45 17 15 64 56 105 92 41 36 77 67 80 70 3 3 41 36 85 75 44 38 82
72 85 75 3 3 31 29 62 58 l57 52 -1340 0 -1339 0 0 -135z"/>
<path d="M2410 1997 c-87 -22 -174 -67 -233 -120 -18 -16 -59 -52 -91 -80 -33
-29 -69 -61 -80 -72 -19 -17 -84 -75 -205 -180 -19 -16 -53 -46 -75 -66 -41
-36 -157 -136 -252 -216 -27 -23 -60 -51 -74 -63 -14 -12 -47 -40 -75 -63 -27
-23 -68 -58 -90 -78 -22 -19 -107 -92 -190 -161 -154 -129 -408 -343 -505
-427 -30 -26 -91 -79 -135 -117 -44 -37 -85 -73 -91 -79 -6 -5 -39 -35 -75
-65 -65 -56 -150 -131 -159 -140 -3 -3 -22 -20 -43 -38 l-38 -32 1346 0 1345
0 1 38 c2 85 -1 225 -5 229 -2 3 -437 5 -965 4 l-961 0 32 27 c18 15 35 29 38
32 3 3 50 43 105 90 55 47 102 87 105 90 3 3 50 43 105 90 55 46 102 86 105
90 3 3 32 27 65 55 33 27 62 52 65 55 3 3 34 30 70 60 35 30 76 65 90 77 14
11 156 132 315 268 160 136 301 257 315 268 14 12 70 60 125 107 55 47 102 87
105 90 3 3 32 27 65 54 33 27 65 55 70 61 6 6 67 59 137 117 148 123 151 115
-57 116 -91 0 -141 -5 -205 -21z m315 -24 c-17 -14 -39 -32 -50 -42 -27 -22
-227 -194 -241 -206 -6 -5 -33 -29 -60 -52 -27 -23 -59 -50 -72 -61 -13 -11
-41 -35 -64 -54 -23 -18 -48 -40 -56 -48 -9 -8 -32 -28 -53 -45 -52 -42 -313
-265 -393 -336 -23 -19 -115 -98 -206 -174 -91 -77 -167 -142 -170 -145 -3 -3
-34 -30 -70 -60 -36 -30 -70 -59 -76 -65 -6 -5 -35 -30 -65 -55 -29 -25 -72
-61 -94 -81 -22 -19 -98 -84 -170 -144 -71 -60 -141 -120 -155 -133 l-25 -23
25 1 c14 1 456 2 982 1 872 -1 957 -2 960 -17 2 -9 2 -61 0 -115 l-3 -99
-1307 0 -1307 1 30 27 c27 24 114 100 185 162 26 23 118 102 154 133 11 10 35
31 51 45 17 15 73 63 125 107 52 44 100 84 106 90 6 5 33 29 60 51 27 23 130
110 229 194 99 84 250 211 335 283 85 72 160 136 166 142 6 5 35 31 65 56 166
142 225 192 229 198 3 3 36 33 75 66 38 33 83 72 100 87 16 14 39 35 51 45 41
36 167 148 179 160 29 28 126 83 171 97 92 28 129 33 259 33 l129 1 -29 -25z"/>
</g>
</svg>
